Coordinates
version=1
nRows=14
nColumns=40
inDegrees=yes

Units are S.I. units (second, meters, Newtons, ...)
Angles are in degrees.

endheader
time	pelvis_tilt	pelvis_list	pelvis_rotation	pelvis_tx	pelvis_ty	pelvis_tz	hip_flexion_r	hip_adduction_r	hip_rotation_r	knee_angle_r	knee_angle_r_beta	ankle_angle_r	subtalar_angle_r	mtp_angle_r	hip_flexion_l	hip_adduction_l	hip_rotation_l	knee_angle_l	knee_angle_l_beta	ankle_angle_l	subtalar_angle_l	mtp_angle_l	lumbar_extension	lumbar_bending	lumbar_rotation	arm_flex_r	arm_add_r	arm_rot_r	elbow_flex_r	pro_sup_r	wrist_flex_r	wrist_dev_r	arm_flex_l	arm_add_l	arm_rot_l	elbow_flex_l	pro_sup_l	wrist_flex_l	wrist_dev_l
      0.00833300	     11.35235933	     -0.86582073	     -1.38169002	      0.86537588	      1.10557461	     -0.45557718	    -14.75733549	      2.17457628	     -1.54977669	     13.00282962	     13.00282962	     13.26382702	      0.00000000	      0.00000000	     18.07431553	     -5.33661614	     -4.74883429	     42.77442911	     42.77442911	      3.97423780	      0.00000000	      0.00000000	    -26.58121163	     -0.41941406	      5.46553280	     -0.38303446	    -18.45262240	     -6.64261184	     55.54537987	     55.91655362	      0.00000000	      0.00000000	     -2.06906804	    -10.70829330	      8.62834446	     30.84400192	     54.78206946	      0.00000000	      0.00000000
      0.01666633	     11.39980307	     -0.95777752	     -1.46936714	      0.86437399	      1.10467926	     -0.45574738	    -15.63072585	      2.22662445	     -1.39806446	     12.45946723	     12.45946723	     13.19369330	      0.00000000	      0.00000000	     18.03033684	     -5.42860003	     -5.18843934	     39.81394213	     39.81394213	      3.95930805	      0.00000000	      0.00000000	    -26.71730327	     -0.39063323	      5.70215019	     -0.08749850	    -18.61871494	     -6.32473416	     56.17724127	     55.83186070	      0.00000000	      0.00000000	     -2.08080306	    -10.62369480	      8.67623517	     30.10683712	     54.93429187	      0.00000000	      0.00000000
      0.02499967	     11.02947095	     -1.35222316	     -1.47054280	      0.86367386	      1.10280243	     -0.45603660	    -15.90275339	      2.61285481	     -1.56323854	     12.35085194	     12.35085194	     13.51267014	      0.00000000	      0.00000000	     18.57084303	     -5.85546637	     -5.58325435	     37.23310081	     37.23310081	      4.21360508	      0.00000000	      0.00000000	    -26.34014013	      0.02814904	      5.87926365	      0.19127051	    -18.70875984	     -6.21164535	     56.70434491	     55.81128824	      0.00000000	      0.00000000	     -2.45423108	    -10.58496084	      8.70521287	     29.92878931	     54.94973680	      0.00000000	      0.00000000
      0.03333300	     11.31113858	     -1.13934487	     -1.61121172	      0.86246146	      1.10222227	     -0.45616765	    -17.11329551	      2.32536519	     -1.10601714	     11.55361300	     11.55361300	     13.48940454	      0.00000000	      0.00000000	     18.05140930	     -5.50127799	     -5.91007799	     33.87400039	     33.87400039	      3.80379809	      0.00000000	      0.00000000	    -26.82378062	     -0.31826085	      6.10578503	      0.45449812	    -18.85876039	     -5.85143088	     57.46228101	     55.77366773	      0.00000000	      0.00000000	     -2.28634882	    -10.55530295	      8.76328483	     29.20408747	     55.06615110	      0.00000000	      0.00000000
      0.04166633	     11.44210010	     -1.14719877	     -1.66758153	      0.86157795	      1.10111506	     -0.45646619	    -18.06563527	      2.27686952	     -1.13573380	     11.05232994	     11.05232994	     13.53309423	      0.00000000	      0.00000000	     17.79543679	     -5.40744963	     -6.37825053	     30.93889554	     30.93889554	      3.82369666	      0.00000000	      0.00000000	    -27.08679916	     -0.37409468	      6.23024416	      0.76443129	    -18.91091098	     -5.74435134	     58.04330278	     55.70563591	      0.00000000	      0.00000000	     -2.39099561	    -10.59001936	      8.94387726	     28.92449375	     55.23394746	      0.00000000	      0.00000000
      0.04999967	     11.36972225	     -1.14378013	     -1.66822018	      0.86068262	      1.09956852	     -0.45686278	    -18.73180102	      2.24147170	     -1.04879839	     10.71975238	     10.71975238	     13.75886729	      0.00000000	      0.00000000	     17.76232096	     -5.20896722	     -6.43184740	     28.09741244	     28.09741244	      3.82477995	      0.00000000	      0.00000000	    -27.12325533	     -0.42195051	      6.27711481	      1.02077037	    -18.93914552	     -5.53010906	     58.60416281	     55.68423119	      0.00000000	      0.00000000	     -2.45776046	    -10.60360831	      9.00600554	     28.47490992	     55.29993214	      0.00000000	      0.00000000
      0.05833300	     11.32353366	     -1.09154624	     -1.65126813	      0.85983869	      1.09796635	     -0.45738667	    -19.42469308	      2.15478170	     -1.01813221	     10.40122715	     10.40122715	     13.98337662	      0.00000000	      0.00000000	     17.66616615	     -4.91604508	     -6.32198542	     25.34962242	     25.34962242	      3.81722440	      0.00000000	      0.00000000	    -27.18669948	     -0.50810932	      6.28304724	      1.27954952	    -18.96101299	     -5.34083019	     59.11061692	     55.68566913	      0.00000000	      0.00000000	     -2.52954371	    -10.62460157	      9.09747795	     28.10007785	     55.34947692	      0.00000000	      0.00000000
      0.06666633	     11.04681525	     -1.14701497	     -1.63729998	      0.85907255	      1.09583270	     -0.45798430	    -19.80634556	      2.18134305	     -0.87506923	     10.24924496	     10.24924496	     14.37890077	      0.00000000	      0.00000000	     17.87265890	     -4.72459694	     -5.88362964	     22.93379227	     22.93379227	      4.10065304	      0.00000000	      0.00000000	    -26.97640832	     -0.47303983	      6.37821697	      1.43791100	    -19.03199688	     -5.11130984	     59.56224837	     55.70215131	      0.00000000	      0.00000000	     -2.62592009	    -10.60080403	      9.11193315	     27.79660547	     55.34339721	      0.00000000	      0.00000000
      0.07499967	     11.22295488	     -0.91203752	     -1.53300982	      0.85840741	      1.09445165	     -0.45862352	    -20.77969427	      1.93241825	     -1.08849501	      9.85686017	      9.85686017	     14.48511880	      0.00000000	      0.00000000	     17.44892275	     -4.19246220	     -5.46137365	     20.35080552	     20.35080552	      3.70887008	      0.00000000	      0.00000000	    -27.27766410	     -0.73038059	      6.14490732	      1.76099378	    -18.92933146	     -4.96612195	     59.96418620	     55.74012203	      0.00000000	      0.00000000	     -2.65394247	    -10.69884742	      9.28730639	     27.36134431	     55.39523029	      0.00000000	      0.00000000
      0.08333300	     10.99765996	     -0.90018408	     -1.48786802	      0.85786582	      1.09224804	     -0.45925959	    -21.21719394	      1.90761290	     -1.01178582	      9.72936245	      9.72936245	     14.87790832	      0.00000000	      0.00000000	     17.60305387	     -3.94786427	     -4.77441247	     18.40596326	     18.40596326	      3.99255157	      0.00000000	      0.00000000	    -27.09384306	     -0.76095184	      6.15955369	      1.89622951	    -18.93358476	     -4.75005686	     60.33527085	     55.77746757	      0.00000000	      0.00000000	     -2.72090108	    -10.70987679	      9.29828175	     27.05574032	     55.38436798	      0.00000000	      0.00000000
      0.09166633	     11.14228118	     -0.68915479	     -1.35823371	      0.85742918	      1.09069632	     -0.45997778	    -22.09641253	      1.70592310	     -1.34120082	      9.49306812	      9.49306812	     14.98127085	      0.00000000	      0.00000000	     17.24449050	     -3.47299639	     -4.09764346	     16.38823802	     16.38823802	      3.59604119	      0.00000000	      0.00000000	    -27.33727638	     -0.99159728	      5.90513122	      2.15858258	    -18.80844588	     -4.60285780	     60.60851191	     55.85280373	      0.00000000	      0.00000000	     -2.77108782	    -10.82459370	      9.38714935	     26.70551619	     55.32474600	      0.00000000	      0.00000000
      0.09999967	     10.94002170	     -0.72022390	     -1.34242111	      0.85727305	      1.08841668	     -0.46064869	    -22.51677222	      1.71699748	     -1.41692753	      9.48154165	      9.48154165	     15.29306822	      0.00000000	      0.00000000	     17.52350842	     -3.37411862	     -3.90499696	     15.37022082	     15.37022082	      3.96003487	      0.00000000	      0.00000000	    -27.12291394	     -0.96713277	      5.86396222	      2.27592376	    -18.71704079	     -4.48438314	     60.90265423	     55.88814123	      0.00000000	      0.00000000	     -2.94934132	    -10.85290314	      9.36356823	     26.47761497	     55.28073211	      0.00000000	      0.00000000
      0.10833300	     11.15921582	     -0.36249086	     -1.25907935	      0.85698710	      1.08695598	     -0.46135755	    -23.40874097	      1.34744635	     -1.71277846	      9.40302330	      9.40302330	     15.42435296	      0.00000000	      0.00000000	     17.02702210	     -2.76655524	     -3.02585653	     13.77279364	     13.77279364	      3.38242391	      0.00000000	      0.00000000	    -27.43870671	     -1.40443236	      5.66643704	      2.40665438	    -18.61369660	     -4.24406816	     61.06243423	     56.03089585	      0.00000000	      0.00000000	     -2.90248589	    -10.99417086	      9.29061686	     26.19963535	     54.92072582	      0.00000000	      0.00000000
      0.11666633	     11.18560260	     -0.18843626	     -1.26733314	      0.85704537	      1.08505423	     -0.46205733	    -24.04510185	      1.10700904	     -1.84874302	      9.47593157	      9.47593157	     15.67114841	      0.00000000	      0.00000000	     16.97378273	     -2.45297362	     -2.85613074	     13.08497568	     13.08497568	      3.35061970	      0.00000000	      0.00000000	    -27.44230121	     -1.64109240	      5.56730746	      2.47154676	    -18.46242867	     -4.05389898	     61.24397498	     56.14400428	      0.00000000	      0.00000000	     -2.99076673	    -11.05405882	      9.29541353	     25.90149328	     54.65773305	      0.00000000	      0.00000000
